<svg width="200" height="205" viewBox="0 0 200 205" fill="none" xmlns="http://www.w3.org/2000/svg">
<g clip-path="url(#clip0_35_660)">
<path d="M27.0201 100.934C24.0547 97.2661 19.6067 93.7493 14.5658 93.9506C9.91507 94.1317 5.28917 97.2661 3.69286 101.614C1.0489 108.738 2.21034 117.105 3.09001 124.466C3.48115 127.792 4.38896 131.034 5.77948 134.07C6.22429 135.037 6.71916 135.979 7.262 136.892C10.2866 134.708 14.3196 133.335 18.1002 133.687C17.5565 130.572 15.99 128.288 13.4941 126.321C13.3949 126.27 13.3067 126.199 13.2346 126.112C13.1625 126.026 13.108 125.926 13.0742 125.818C13.0381 125.704 13.0274 125.582 13.0428 125.463C13.0582 125.344 13.0993 125.23 13.1631 125.128C14.6911 121.13 15.5061 116.885 15.57 112.595C15.5979 112.339 15.7054 112.098 15.8769 111.908C16.0484 111.718 16.275 111.589 16.5237 111.539C16.6516 111.505 16.7849 111.498 16.9156 111.518C17.0462 111.537 17.1717 111.584 17.2846 111.654C17.3974 111.723 17.4954 111.816 17.5727 111.925C17.6499 112.034 17.7049 112.158 17.7344 112.289C19.3357 117.068 20.9767 122.125 24.4113 125.919C24.3438 124.38 24.3554 122.838 24.4461 121.3C24.8317 114.648 25.8893 107.715 28.0587 101.25C27.876 101.324 27.6739 101.334 27.4854 101.276C27.2969 101.218 27.1331 101.097 27.021 100.933L27.0201 100.934Z" fill="white"/>
<path d="M8.45703 138.614C9.35063 139.787 10.6117 140.612 12.0303 140.954C15.6578 141.663 17.9016 138.911 18.1834 135.826C14.8278 135.394 11.0911 136.651 8.45703 138.614Z" fill="#805F75"/>
<path d="M120.167 110.755C124.382 108.621 130.718 106.227 134.569 110.292C137.845 113.728 138.29 119.046 138.463 123.518C138.686 129.556 137.594 136.046 139.101 141.938C140.524 147.472 144.26 150.994 148.862 153.741C143.143 146.552 144.819 133.863 145.689 125.128C146.45 117.504 146.45 108.021 140.746 102.019C137.386 98.4973 132.587 96.8115 127.754 98.3061C122.922 99.8006 118.725 103.262 117.548 108.203C117.541 108.239 117.53 108.275 117.514 108.308C118.212 108.807 118.865 109.368 119.466 109.984C119.707 110.237 119.939 110.494 120.167 110.755Z" fill="#00D3D4"/>
<path d="M71.5993 84.9246C71.5813 87.9881 71.9974 91.0383 72.8348 93.9809C73.6178 96.7236 75.0346 99.2355 76.9667 101.306C77.0894 101.257 77.2203 101.231 77.3523 101.231C84.064 101.105 86.0211 96.6224 88.8579 91.5808C89.664 90.1084 90.7044 88.7822 91.9367 87.6562C84.6321 88.3058 77.2389 90.4894 71.5993 84.9246Z" fill="#029FA0"/>
<path d="M72.8298 71.5258C75.8693 75.2035 80.8511 76.4365 85.5266 76.6075C84.767 74.7867 84.1184 72.9199 83.5844 71.0178C82.1362 66.1426 81.4692 60.17 77.5645 56.4619C75.2579 54.2981 72.4257 52.8003 69.3604 52.1233L67.7542 51.7509C71.2136 55.3684 73.4972 59.9522 73.4178 65.3355C73.3561 67.4099 73.1597 69.4778 72.8298 71.5258V71.5258Z" fill="#00D3D4"/>
<path d="M46.3243 196.339C46.65 197.313 47.1004 198.238 47.6637 199.091C48.84 200.832 50.4955 201.205 52.3686 200.098C53.0535 199.725 53.6558 199.213 54.1379 198.593C54.6201 197.974 54.9717 197.26 55.1711 196.495C52.2831 195.679 49.2384 195.625 46.3243 196.339V196.339Z" fill="#805F75"/>
<path d="M71.7524 79.8728C71.7097 80.5437 71.675 81.2279 71.6486 81.9254C71.7892 81.991 71.9128 82.0893 72.0094 82.2123C77.8757 89.4422 86.5098 85.6487 94.4354 85.4275C92.1045 84.6598 90.0184 83.2698 88.3945 81.4023C87.705 80.5617 87.0943 79.6571 86.5706 78.7005C86.4917 78.7082 86.4124 78.7082 86.3335 78.7005C81.2856 78.6403 76.118 77.4529 72.431 74.102C72.1575 76.0493 71.8712 77.9609 71.7524 79.8728Z" fill="#029FA0"/>
<path d="M65.3324 35.3455C64.9666 32.2111 64.6456 29.0663 64.4635 25.91C64.3642 25.7987 64.287 25.6688 64.2363 25.5275C63.7423 24.0886 61.9135 23.8873 60.4951 24.1236C60.0827 27.2946 59.687 30.465 59.308 33.6349C61.5618 32.9255 63.588 33.8459 65.3324 35.3455Z" fill="white"/>
<path d="M65.7312 38.797C65.6773 38.7554 65.6276 38.7083 65.5831 38.6563C63.9227 36.7039 61.7765 34.45 59.0841 36.0502L59.015 36.0805C58.6856 38.935 58.3561 41.7862 58.0265 44.6339C58.0082 44.8146 57.9453 44.9876 57.8436 45.1369C59.395 45.7781 60.8939 46.5436 62.3264 47.4262C62.5041 47.4402 62.6748 47.5028 62.8204 47.6074C64.0914 48.4343 65.4946 49.0286 66.9667 49.3635C66.6225 45.8256 66.1727 42.3138 65.7312 38.797Z" fill="white"/>
<path d="M64.3091 22.616C64.1113 16.6237 64.2598 10.6465 64.0819 4.6693C64.0471 3.663 64.2549 0.941037 63.7753 3.21018C63.5134 4.4629 63.3255 5.72574 63.1033 6.98857C62.3619 11.0739 61.7029 15.1712 61.1264 19.2804C61.0023 20.1649 60.8992 21.0562 60.7755 21.9421C61.9924 21.8199 63.2182 22.0537 64.3091 22.616V22.616Z" fill="white"/>
<path d="M67.8779 188.691C67.4168 190.624 67.2057 192.61 67.2502 194.598C70.2156 195.177 73.1807 195.715 76.1461 196.073C76.2992 195.434 76.4772 194.805 76.6402 194.177C76.6402 194.152 76.586 194.135 76.5574 194.112C74.0409 191.67 71.2981 189.622 67.8779 188.691Z" fill="#805F75"/>
<path d="M138.266 146.101C135.918 140.672 136.289 134.926 136.358 129.171C136.417 124.335 136.771 118.529 134.569 114.076C131.841 108.542 126.068 110.201 121.457 112.491C123.582 115.741 124.422 119.535 124.422 123.475C131.895 125.487 132.226 133.855 133.14 140.103C133.728 144.105 134.801 147.414 137.964 150.247C141.485 153.359 145.646 155.63 150.141 156.893C145.259 154.408 140.465 151.178 138.266 146.101Z" fill="#029FA0"/>
<path d="M115.422 109.508C108.899 105.644 101.624 107.581 94.5273 108.139C85.7402 108.823 76.152 106.71 72.1488 98.1721C68.3285 90.0366 69.1933 80.4769 70.4884 71.8329C70.4545 71.6621 70.4788 71.4847 70.5575 71.3299C71.3283 66.052 71.7338 61.0356 68.6893 56.2762C65.8343 51.8032 61.2759 48.5429 56.225 46.7165C51.0943 44.8749 45.4014 44.0349 39.9599 44.8749C34.8003 45.6697 25.8845 48.8394 28.4494 55.6582C30.5004 61.1224 35.7441 62.2896 40.36 64.9311C43.9631 66.9888 46.538 69.7714 45.7075 74.078C45.6484 74.3729 45.6583 74.3548 45.5544 74.8076C44.7981 80.7949 39.1643 84.9911 35.9712 89.8411C31.731 96.2914 29.3634 103.255 27.94 110.757C26.5167 118.259 25.2365 127.028 28.108 134.345C28.997 136.585 30.3962 138.577 32.1902 140.158C32.5908 140.505 38.2891 143.967 41.3382 144.43C41.1255 142.347 40.9033 140.254 40.7155 138.161C40.5967 136.807 42.7516 136.817 42.8753 138.161C43.1174 140.928 43.4546 143.695 43.7302 146.453C44.1108 150.332 44.4071 154.256 44.0612 158.15C43.7153 162.045 42.8699 165.789 42.6775 169.656C42.3565 175.991 43.8832 181.792 44.7683 187.98C45.0501 189.952 45.2623 192.181 45.7568 194.298C48.9402 193.51 52.2652 193.53 55.4389 194.358C55.4389 194.223 55.4389 194.086 55.4389 193.946C55.261 188.703 53.1218 183.883 52.1474 178.776C51.307 174.359 52.3303 169.901 54.4951 165.976C59.3188 157.262 69.432 149.755 67.345 138.807C67.0967 137.479 69.1689 136.912 69.4258 138.244C70.3055 142.883 69.2876 147.064 67.2957 150.968C73.9478 151.783 80.9856 151.552 86.2541 147.23C86.4964 145.736 86.9405 144.283 87.5736 142.913C88.147 141.675 90.0053 142.752 89.4318 143.98C89.1421 144.61 88.8977 145.261 88.7002 145.927L88.6589 146.073C88.6936 146.073 88.6589 146.123 88.634 146.223C88.4674 146.835 88.3402 147.457 88.2534 148.085C88.2236 148.085 88.2534 148.338 88.2041 148.357C88.2041 148.567 88.1628 148.778 88.1549 148.99C88.147 149.203 88.1549 149.493 88.1549 149.749C88.1043 150.514 88.1693 151.283 88.3477 152.028C88.7502 154.342 89.7382 156.51 91.2143 158.317C91.2143 158.317 92.4994 159.771 92.7907 159.993H92.8321C93.1482 160.28 93.4747 160.556 93.8206 160.818C97.1861 163.334 99.4548 166.156 99.3063 170.539C99.1234 175.927 96.8994 180.848 94.7296 185.713C93.4034 188.473 92.2881 191.333 91.3934 194.267C94.9932 195.126 98.2759 197.017 100.853 199.716C100.977 199.298 101.075 198.921 101.165 198.663C101.581 197.273 102.076 195.909 102.647 194.577C104.569 190.476 107.392 186.798 109.383 182.718C110.812 179.657 111.995 176.484 112.922 173.229C114.404 168.394 115.912 163.372 116.193 158.311C116.297 156.439 116.46 153.979 115.289 152.359C113.954 150.502 111.335 151.479 109.605 152.183C108.37 152.686 107.811 150.814 108.902 150.211C108.891 150.097 108.904 149.981 108.938 149.872C108.973 149.763 109.03 149.663 109.105 149.577C114.778 142.201 122.009 134.186 122.246 124.455C122.445 118.675 120.775 112.677 115.422 109.508ZM54.7711 57.071C54.3139 57.0533 53.8719 56.899 53.5002 56.6275C53.1284 56.356 52.8433 55.9792 52.6803 55.544C52.5173 55.1088 52.4836 54.6344 52.5834 54.1798C52.6832 53.7253 52.9121 53.3106 53.2416 52.9875C53.5711 52.6643 53.9867 52.447 54.4366 52.3625C54.8866 52.2779 55.351 52.3299 55.7721 52.5121C56.1932 52.6942 56.5524 52.9983 56.805 53.3866C57.0576 53.775 57.1925 54.2304 57.1928 54.6962C57.1799 55.3376 56.9178 55.9478 56.4638 56.3929C56.0099 56.838 55.4012 57.0819 54.7711 57.071Z" fill="white"/>
<path d="M131.747 144.3C130.318 138.468 131.426 128.028 124.333 125.644C124.204 127.283 123.905 128.904 123.439 130.479C123.528 130.584 123.593 130.708 123.632 130.841C123.801 130.883 123.957 130.968 124.087 131.088C129.899 136.386 127.373 145.648 132.983 151.168C136.124 154.161 140.041 156.178 144.271 156.981C138.547 154.368 133.175 150.106 131.747 144.3Z" fill="#029FA0"/>
<path d="M85.9963 150.025C81.0096 153.269 74.9256 153.744 68.9111 153.227C71.2782 159.377 74.4969 165.901 73.033 172.628C71.9754 177.463 69.7713 181.961 68.4071 186.645C71.8666 187.561 74.758 189.528 77.3722 191.928C80.9554 181.257 87.6621 171.737 90.2961 160.734C89.6398 160.128 89.0484 159.454 88.5318 158.721C86.8367 156.153 85.9521 153.119 85.9963 150.025V150.025Z" fill="#E5E9FF"/>
<path d="M90.8985 196.329C90.519 198.274 90.4956 200.273 90.8294 202.226C93.4833 202.521 96.6809 203.58 99.1175 202.79C99.5095 202.617 99.8271 202.306 100.012 201.915C100.012 201.889 99.9628 201.872 99.943 201.849C97.4025 199.116 94.5165 197.204 90.8985 196.329Z" fill="#805F75"/>
<path d="M158.464 156.833C140.307 153.492 148.852 128.657 148.15 116.532C147.705 108.859 144.633 99.7218 136.684 96.6528C128.376 93.4426 117.953 98.7589 115.605 107.141C111.276 104.913 106.067 104.797 101.129 105.288C94.3981 105.957 87.4787 107.19 81.0538 104.242C80.4165 103.946 79.8034 103.6 79.2204 103.205C83.5794 102.611 86.604 100.186 88.833 96.2126C90.0093 94.1094 90.9382 91.8504 92.4803 89.9637C93.4273 88.7994 94.6753 87.928 96.0834 87.4481H96.1277C97.4856 87.0024 98.9072 86.7915 100.334 86.8243C101.52 86.8243 101.846 84.9376 100.62 84.7514C96.1723 84.0821 91.8626 82.7388 89.1789 78.9705C86.6239 75.3682 85.7194 70.6488 84.4889 66.5023C83.0903 61.7576 81.993 57.4459 78.0639 54.0445C76.1274 52.439 73.8957 51.2428 71.4995 50.526C70.7287 50.2847 69.9475 50.0934 69.1717 49.9072C68.2614 40.0459 66.735 30.3152 66.3581 20.3983C66.2 16.2677 65.9331 12.0614 66.1404 7.92999C66.2542 5.72108 66.8769 2.17394 65.0138 0.474292C63.5312 -0.879107 62.251 0.977235 61.8311 2.21016C60.5116 6.08544 60.279 10.6427 59.6563 14.6679C58.1291 24.5444 57.0765 34.4815 55.8803 44.3984C46.8507 41.3294 30.1805 40.7005 26.2961 51.1507C24.4528 56.1014 28.6587 61.2938 32.8001 63.5933C36.5653 65.6813 43.9498 67.5229 43.7272 72.7052V73.0123C43.563 74.2565 43.213 75.4679 42.6895 76.6045C41.5922 79.6938 39.1212 82.3201 37.0751 84.8205C34.3864 88.142 32.1073 91.786 30.2885 95.6713C29.6856 96.9442 29.1469 98.2526 28.6475 99.5858C28.6246 99.5432 28.5982 99.5028 28.5685 99.4649C25.2079 95.3192 20.7202 92.2619 15.2688 91.8525C10.0595 91.4649 5.00745 94.8714 2.4781 99.1582C0.000887753 103.329 -0.0818653 108.782 0.0306789 113.462C0.0935637 117.97 0.511705 122.466 1.28108 126.906C2.42266 133.059 6.42584 145.124 15.0404 142.865C18.5347 141.955 20.21 138.84 20.3532 135.595C20.5019 135.406 20.583 135.171 20.583 134.928C20.583 134.686 20.5019 134.451 20.3532 134.262C20.0764 130.579 18.2016 127.485 15.4107 125.15C16.3185 122.706 16.9518 120.166 17.2988 117.578C18.5541 120.908 20.0863 124.118 22.3794 126.835H22.3442C22.3442 126.835 22.453 126.962 22.6338 127.157C22.698 127.232 22.7675 127.308 22.8366 127.379C23.0294 127.585 23.2615 127.826 23.5185 128.083C23.6174 128.179 23.7014 128.279 23.8003 128.375L23.8793 128.435C24.1412 128.688 24.423 128.938 24.6898 129.155C25.3026 133.497 26.8348 137.627 29.9583 140.983C31.2335 142.357 38.9631 146.427 41.5529 146.598C42.0175 151.653 42.2645 156.701 41.4887 161.805C40.362 169.196 40.1494 176.24 41.7258 183.585C42.5364 187.359 42.9414 191.21 43.8211 194.966C44.508 197.925 45.6744 201.453 48.7929 202.685C52.1142 203.998 55.9097 200.722 57.0318 197.96C58.7812 193.638 56.8191 187.932 55.6527 183.716C54.2737 178.73 53.315 174.519 55.2129 169.483C57.0169 164.708 60.6494 160.703 63.6951 156.648C64.5996 155.435 65.4395 154.202 66.2009 152.941L66.5666 152.986C66.58 153.068 66.6015 153.149 66.6308 153.227C69.3095 160.337 72.7346 167.144 70.2239 174.817C68.9044 178.842 67.1844 182.781 66.102 186.847C65.9401 187.081 65.868 187.367 65.8992 187.652C65.239 190.207 64.9875 192.854 65.1544 195.491C65.1612 195.723 65.242 195.947 65.3846 196.129C65.5272 196.31 65.724 196.439 65.9451 196.497C69.6173 197.217 73.2895 197.896 77.0109 198.293C77.2435 198.298 77.4712 198.225 77.6588 198.085C77.8464 197.945 77.9834 197.746 78.0486 197.519C80.7915 185.066 88.9215 174.586 92.139 162.324C94.526 164.267 96.8489 166.027 97.1257 169.811C97.5808 175.944 93.9231 182.123 91.5655 187.567C89.3725 192.643 87.6115 197.971 88.9017 203.496C88.9744 203.719 89.1153 203.913 89.3037 204.048C89.4922 204.184 89.7184 204.255 89.9493 204.251C93.1916 204.356 96.4632 205.433 99.7105 204.809C102.498 204.276 103.348 198.923 104.079 196.845C105.696 192.236 109.056 188.14 111.27 183.763C113.008 180.337 114.142 176.719 115.224 173.061C116.914 167.476 122.396 147.739 112.038 149.258C116.031 144.126 120.371 138.732 122.703 132.68C125.822 135.638 126.163 140.352 127.082 144.287C127.996 148.399 130.328 152.041 133.655 154.551C140.482 159.879 150.222 160.589 158.471 158.843C159.478 158.649 159.512 157.029 158.464 156.833ZM117.547 108.204C118.724 103.263 122.949 99.7972 127.753 98.3078C132.558 96.8183 137.386 98.4838 140.746 102.021C146.449 108.023 146.449 117.507 145.688 125.13C144.819 133.864 143.143 146.553 148.861 153.743C144.26 151.021 140.523 147.489 139.1 141.94C137.592 136.048 138.686 129.542 138.462 123.52C138.289 119.047 137.844 113.729 134.568 110.293C130.72 106.238 124.382 108.623 120.166 110.757C119.939 110.495 119.706 110.254 119.462 109.987C118.862 109.37 118.208 108.81 117.51 108.311C117.523 108.276 117.538 108.24 117.547 108.204ZM88.8578 91.601C86.021 96.6325 84.0639 101.125 77.3522 101.251C77.2202 101.251 77.0893 101.277 76.9666 101.327C75.0346 99.2557 73.6178 96.7438 72.8347 94.0011C71.9973 91.0585 71.5812 88.0083 71.5992 84.9448C77.2385 90.5096 84.6328 88.326 91.9366 87.692C90.7061 88.8119 89.6658 90.1311 88.8578 91.5964V91.601ZM86.5747 78.7258C87.0984 79.6824 87.709 80.5869 88.3985 81.4276C90.0224 83.2951 92.1085 84.6851 94.4395 85.4528C86.532 85.6744 77.8781 89.478 72.0134 82.2376C71.9169 82.1145 71.7933 82.0163 71.6526 81.9507C71.6802 81.2596 71.7148 80.5754 71.7565 79.8981C71.8752 77.9861 72.1471 76.0742 72.4384 74.1694C76.1254 77.5203 81.2929 78.6976 86.3409 78.7679C86.4212 78.7608 86.5006 78.7457 86.578 78.7229L86.5747 78.7258ZM69.362 52.13C72.4273 52.8071 75.2595 54.3048 77.5662 56.4687C81.4704 60.1755 82.1378 66.1489 83.5856 71.0245C84.1196 72.9266 84.7682 74.7934 85.5278 76.6142C80.8523 76.4432 75.8705 75.2103 72.831 71.5325C73.162 69.4768 73.3584 67.4009 73.419 65.3186C73.498 59.9602 71.2393 55.3777 67.7554 51.7341L69.362 52.13ZM61.1281 19.3006C61.7046 15.1916 62.3636 11.0944 63.1051 7.00877C63.3277 5.75604 63.5151 4.49321 63.777 3.23037C64.271 0.961229 64.0489 3.70341 64.0836 4.6895C64.2615 10.6667 64.1134 16.6439 64.3108 22.6362C63.2248 22.077 62.0051 21.8433 60.7938 21.9623C60.8993 21.0764 61.0031 20.186 61.1268 19.3001L61.1281 19.3006ZM60.4934 24.1253C61.9118 23.889 63.7257 24.0899 64.2346 25.5292C64.2853 25.6705 64.3625 25.8004 64.4618 25.9117C64.6447 29.0663 64.9558 32.2111 65.3307 35.3471C63.5863 33.8379 61.5596 32.9272 59.3063 33.6365C59.6897 30.4656 60.0854 27.2951 60.4934 24.1253ZM58.0232 44.6331C58.3525 41.7786 58.682 38.9274 59.0117 36.0797L59.0808 36.0493C61.7942 34.4487 63.9193 36.6984 65.5897 38.6555C65.6342 38.7074 65.6839 38.7545 65.7378 38.7961C66.1677 42.318 66.6175 45.8399 66.9535 49.3622C65.4814 49.0273 64.0781 48.433 62.8072 47.6061C62.6615 47.5015 62.4908 47.4389 62.3131 47.425C60.8796 46.5369 59.3789 45.7663 57.8254 45.1204C57.9231 44.975 57.9842 44.8073 58.0033 44.6322L58.0232 44.6331ZM12.0601 140.953C10.6414 140.612 9.38039 139.786 8.4868 138.614C11.1208 136.652 14.877 135.394 18.2132 135.827C17.9016 138.911 15.6582 141.663 12.0303 140.954L12.0601 140.953ZM24.4155 121.286C24.3248 122.824 24.3132 124.366 24.3808 125.905C20.9465 122.111 19.3051 117.055 17.7038 112.275C17.6744 112.144 17.6194 112.02 17.5421 111.911C17.4648 111.802 17.3669 111.71 17.254 111.64C17.1412 111.57 17.0157 111.524 16.885 111.504C16.7543 111.484 16.6211 111.491 16.4932 111.525C16.2445 111.575 16.0179 111.704 15.8464 111.894C15.6748 112.084 15.5673 112.325 15.5394 112.581C15.4755 116.872 14.6605 121.116 13.1326 125.115C13.0687 125.216 13.0277 125.33 13.0123 125.449C12.9969 125.568 13.0076 125.689 13.0436 125.804C13.0774 125.912 13.1319 126.012 13.204 126.098C13.2761 126.184 13.3643 126.255 13.4636 126.307C15.9594 128.274 17.5259 130.558 18.0696 133.673C14.2886 133.32 10.2561 134.679 7.23144 136.878C6.68859 135.964 6.19372 135.022 5.74892 134.055C4.36182 131.024 3.456 127.787 3.06523 124.466C2.1806 117.105 1.02413 108.739 3.66809 101.608C5.28922 97.2614 9.91594 94.1267 14.541 93.9455C19.6067 93.7442 24.0398 97.261 26.9953 100.929C27.1068 101.08 27.2629 101.191 27.4408 101.246C27.6187 101.3 27.809 101.295 27.9838 101.231C25.8587 107.686 24.8012 114.637 24.4159 121.286H24.4155ZM52.3885 200.097C50.5154 201.204 48.8599 200.832 47.6836 199.091C47.1197 198.238 46.6688 197.312 46.3426 196.339C49.2566 195.625 52.3013 195.678 55.1893 196.495C54.99 197.259 54.6383 197.973 54.1562 198.593C53.674 199.212 53.0718 199.724 52.3869 200.097L52.3885 200.097ZM76.1854 196.072C73.1906 195.715 70.2301 195.177 67.2895 194.598C67.245 192.609 67.456 190.624 67.9171 188.691C71.3373 189.622 74.0802 191.644 76.6302 194.11C76.66 194.11 76.6894 194.152 76.713 194.175C76.4953 194.804 76.3174 195.433 76.1643 196.07L76.1854 196.072ZM77.3961 191.926C74.7815 189.525 71.8955 187.559 68.431 186.643C69.7965 181.959 71.9994 177.461 73.0569 172.626C74.5395 165.899 71.3026 159.373 68.935 153.225C74.9499 153.728 81.0335 153.27 86.0202 150.024C85.9804 153.11 86.8648 156.136 88.5558 158.698C89.0724 159.43 89.6638 160.105 90.3201 160.71C87.6662 171.734 80.9594 181.253 77.3762 191.923L77.3961 191.926ZM99.1419 202.789C96.7053 203.579 93.5077 202.522 90.8538 202.225C90.52 200.272 90.5434 198.273 90.9229 196.328C94.5405 197.184 97.4269 199.116 99.9674 201.863C99.9921 201.883 100.015 201.904 100.037 201.928C99.8426 202.319 99.5159 202.625 99.1171 202.789L99.1419 202.789ZM122.282 124.461C122.045 134.191 114.814 142.207 109.14 149.582C109.065 149.668 109.009 149.769 108.974 149.878C108.939 149.987 108.927 150.102 108.937 150.216C107.845 150.82 108.404 152.692 109.641 152.188C111.361 151.484 113.99 150.508 115.324 152.364C116.496 153.985 116.313 156.445 116.229 158.316C115.947 163.378 114.425 168.379 112.957 173.235C112.031 176.489 110.847 179.663 109.419 182.723C107.442 186.804 104.605 190.482 102.683 194.582C102.112 195.914 101.617 197.278 101.2 198.668C101.111 198.925 101.012 199.302 100.888 199.721C98.3039 197.015 95.0102 195.122 91.3992 194.267C92.2938 191.333 93.4091 188.473 94.7353 185.714C96.9051 180.849 99.1291 175.928 99.312 170.539C99.4601 166.158 97.1919 163.349 93.8263 160.818C93.483 160.561 93.1531 160.286 92.8378 159.993H92.7964C92.5068 159.772 91.22 158.318 91.22 158.318C89.7439 156.51 88.7559 154.343 88.3534 152.028C88.1751 151.283 88.11 150.514 88.1606 149.749V148.991C88.1654 148.779 88.1818 148.567 88.2099 148.357C88.2396 148.357 88.2099 148.104 88.2591 148.085C88.346 147.457 88.4731 146.835 88.6398 146.224C88.6398 146.123 88.6989 146.093 88.6646 146.073L88.706 145.927C88.9034 145.261 89.1479 144.61 89.4375 143.98C90.011 142.753 88.1523 141.675 87.5793 142.913C86.9462 144.284 86.5022 145.736 86.2598 147.23C80.9913 151.552 73.9536 151.784 67.3015 150.969C69.2784 147.064 70.3112 142.883 69.4315 138.244C69.1746 136.911 67.1037 137.479 67.3507 138.808C69.4315 149.776 59.3195 157.283 54.5008 165.977C52.336 169.901 51.3148 174.359 52.1531 178.777C53.1416 183.878 55.2667 188.704 55.4446 193.946V194.359C52.2709 193.531 48.9459 193.51 45.7625 194.298C45.2685 192.18 45.0657 189.951 44.774 187.98C43.8894 181.791 42.3622 175.99 42.6833 169.657C42.8761 165.788 43.7309 161.994 44.0669 158.145C44.4029 154.296 44.1161 150.326 43.7359 146.447C43.4591 143.68 43.1231 140.913 42.881 138.155C42.7569 136.812 40.6028 136.802 40.7212 138.155C40.909 140.248 41.1312 142.341 41.3439 144.424C38.2945 143.961 32.5961 140.5 32.196 140.153C30.4019 138.572 29.0027 136.579 28.1138 134.34C25.2422 127.024 26.5274 118.239 27.9458 110.751C29.3642 103.263 31.7363 96.2859 35.977 89.8356C39.1696 84.9852 44.8038 80.7793 45.5602 74.8021C45.664 74.3493 45.6541 74.3695 45.7133 74.0725C46.5437 69.7655 43.9688 66.9833 40.3658 64.9256C35.7498 62.2841 30.5061 61.1169 28.4551 55.6528C25.8852 48.8605 34.801 45.6908 39.9607 44.8959C45.3971 44.0556 51.0955 44.8959 56.2258 46.7375C61.2572 48.5488 65.8334 51.8091 68.6901 56.2972C71.7345 61.0571 71.3291 66.073 70.5582 71.351C70.4796 71.5057 70.4552 71.6832 70.4891 71.8539C69.1944 80.4777 68.3293 90.0374 72.1595 98.173C76.1627 106.726 85.7508 108.825 94.538 108.14C101.635 107.581 108.91 105.624 115.433 109.509C120.786 112.683 122.456 118.676 122.263 124.447C122.253 124.457 122.258 124.457 122.258 124.462L122.282 124.461ZM133.002 151.167C127.407 145.632 129.932 136.384 124.106 131.086C123.976 130.967 123.82 130.882 123.651 130.84C123.612 130.707 123.547 130.583 123.458 130.478C123.923 128.903 124.223 127.282 124.352 125.642C131.435 128.027 130.327 138.467 131.766 144.298C133.204 150.129 138.566 154.361 144.285 156.977C140.048 156.178 136.124 154.161 132.977 151.164L133.002 151.167ZM137.988 150.226C134.825 147.393 133.753 144.082 133.165 140.082C132.25 133.834 131.919 125.456 124.447 123.454C124.447 119.514 123.606 115.72 121.481 112.47C126.092 110.181 131.86 108.511 134.593 114.055C136.797 118.528 136.441 124.333 136.382 129.149C136.313 134.906 135.942 140.651 138.29 146.08C140.489 151.157 145.283 154.387 150.151 156.852C145.654 155.596 141.49 153.332 137.964 150.226L137.988 150.226Z" fill="black"/>
<path d="M54.7697 52.3011C54.3125 52.3188 53.8706 52.4731 53.4988 52.7446C53.1271 53.0161 52.842 53.3929 52.679 53.8281C52.5159 54.2633 52.4823 54.7377 52.5821 55.1923C52.6819 55.6468 52.9108 56.0615 53.2403 56.3846C53.5698 56.7078 53.9854 56.9251 54.4353 57.0097C54.8852 57.0942 55.3496 57.0422 55.7708 56.8601C56.1919 56.6779 56.5511 56.3738 56.8037 55.9855C57.0563 55.5971 57.1912 55.1417 57.1915 54.6759C57.1786 54.0345 56.9164 53.4243 56.4625 52.9792C56.0086 52.5341 55.3999 52.2902 54.7697 52.3011V52.3011Z" fill="black"/>
<path d="M122.252 124.446C122.445 118.675 120.77 112.683 115.422 109.508C108.899 105.644 101.624 107.581 94.5272 108.14C85.7401 108.824 76.1519 106.711 72.1487 98.1726C68.3284 90.037 69.1932 80.4773 70.4883 71.8333C70.4544 71.6625 70.4788 71.4851 70.5574 71.3304C71.3282 66.0524 71.7337 61.036 68.6893 56.2766C65.8343 51.8036 61.2758 48.5433 56.225 46.7169C51.0943 44.8753 45.4013 44.0354 39.9599 44.8753C36.1843 45.4587 30.4156 47.3049 28.5917 50.9127C33.1236 50.6562 43.5816 50.6056 52.3786 54.5201C52.4411 53.9005 52.7317 53.3278 53.1919 52.9174C53.6521 52.5069 54.2479 52.289 54.8595 52.3075C55.4711 52.3259 56.0532 52.5794 56.4887 53.0169C56.9242 53.4544 57.181 54.0435 57.2073 54.6658C57.206 55.042 57.1155 55.4123 56.9434 55.7452C56.7713 56.0781 56.5227 56.3638 56.2188 56.5778C63.2317 61.071 68.1493 68.945 66.049 82.6517C60.3804 119.632 101.821 115.109 108.488 115.109C115.155 115.109 120.038 131.506 113.371 143.043C112.947 143.742 112.638 144.507 112.456 145.307C117.295 139.093 122.089 132.326 122.281 124.432L122.252 124.446Z" fill="#E5E9FF"/>
<path d="M65.7329 38.797C65.679 38.7554 65.6293 38.7083 65.5848 38.6563C64.5963 37.4739 63.4051 36.1959 62.0364 35.7128L61.7103 47.0636C61.9081 47.1794 62.1009 47.2898 62.2933 47.4107C62.471 47.4246 62.6417 47.4872 62.7874 47.5918C63.6037 48.1382 64.488 48.5714 65.4168 48.8799L66.8993 49.2017C66.6089 45.7253 66.1678 42.2637 65.7329 38.797Z" fill="white"/>
<path d="M62.3817 24.1257L62.1099 33.5612C63.3044 33.8942 64.4072 34.5037 65.3323 35.3421C64.9665 32.2078 64.6454 29.0629 64.4634 25.9066C64.364 25.7953 64.2869 25.6654 64.2362 25.5242C64.0805 25.1419 63.8257 24.8099 63.4991 24.5636C63.1725 24.3173 62.7863 24.1659 62.3817 24.1257V24.1257Z" fill="white"/>
<path d="M64.0807 4.68951C64.046 3.6832 64.2537 0.961239 63.7741 3.23038C63.5122 4.48311 63.3244 5.74594 63.1022 7.00878C63.0033 7.51172 62.9243 8.06521 62.8303 8.58879L62.4447 22.0259C63.0943 22.111 63.7243 22.3106 64.3066 22.6156C64.1118 16.6439 64.2504 10.6667 64.0807 4.68951Z" fill="white"/>
<path d="M27.0202 100.934C24.0547 97.2661 19.6067 93.7493 14.5658 93.9506C9.91511 94.1317 5.28921 97.2661 3.69291 101.614C1.61705 107.213 1.88392 113.576 2.5265 119.626C3.14922 115.47 6.13909 98.9973 14.3879 99.0778C22.1965 99.1734 26.3482 101.427 27.7318 102.207C27.8357 101.886 27.9296 101.558 28.0384 101.237C27.8598 101.308 27.663 101.317 27.4788 101.262C27.2946 101.207 27.1333 101.092 27.0202 100.935V100.934Z" fill="#E5E9FF"/>
<path d="M174.735 39.2001C174.674 39.3653 174.574 39.5125 174.443 39.6284C174.312 39.7443 174.155 39.8254 173.986 39.8644L170.916 40.6158L173.366 42.6415C173.501 42.7539 173.607 42.8976 173.676 43.0607C173.745 43.2237 173.775 43.4013 173.762 43.5783L173.516 46.7914L176.169 45.0378C176.315 44.9415 176.481 44.8832 176.655 44.868C176.828 44.8528 177.002 44.8812 177.162 44.9507L180.083 46.1815L179.271 43.0665C179.227 42.8951 179.224 42.7153 179.263 42.5426C179.302 42.37 179.382 42.2096 179.496 42.0754L181.55 39.6247L178.394 39.4507C178.22 39.4405 178.051 39.3876 177.902 39.2966C177.753 39.2056 177.627 39.0791 177.536 38.928L175.89 36.1833L174.735 39.2001Z" fill="#FED710"/>
<path d="M192.569 48.7295C192.449 48.8556 192.3 48.9502 192.136 49.0052C191.972 49.0602 191.798 49.074 191.628 49.0454L189.788 48.7295L190.654 50.4068C190.733 50.5632 190.774 50.7365 190.774 50.9123C190.774 51.0881 190.733 51.2613 190.654 51.4177L189.788 53.0951L191.628 52.7707C191.799 52.7395 191.976 52.7521 192.142 52.8072C192.308 52.8623 192.458 52.9583 192.579 53.0866L193.885 54.4472L194.131 52.574C194.155 52.3988 194.221 52.2324 194.324 52.0898C194.427 51.9472 194.563 51.8329 194.72 51.7572L196.388 50.9173L194.719 50.0799C194.564 50.0017 194.43 49.8866 194.327 49.7445C194.225 49.6024 194.158 49.4373 194.131 49.2632L193.864 47.379L192.569 48.7295Z" fill="#FED710"/>
<path d="M175.537 61.6358C175.438 61.781 175.305 61.8988 175.15 61.9786C174.995 62.0585 174.823 62.0979 174.65 62.0933L172.841 62.0714L173.922 63.5414C174.026 63.683 174.095 63.8481 174.123 64.0225C174.151 64.1969 174.137 64.3757 174.083 64.5435L173.503 66.2862L175.215 65.6872C175.379 65.63 175.554 65.6139 175.726 65.6405C175.897 65.667 176.06 65.7354 176.199 65.8397L177.654 66.9289L177.622 65.0882C177.62 64.9119 177.66 64.7379 177.739 64.5808C177.817 64.4237 177.932 64.2883 178.073 64.1859L179.539 63.1169L177.816 62.5722C177.65 62.5189 177.5 62.4257 177.377 62.3007C177.254 62.1756 177.163 62.0222 177.11 61.8536L176.564 60.1L175.537 61.6358Z" fill="#FED710"/>
<path d="M174.66 33.3623L172.949 37.893L168.314 39.0257C168.121 39.0726 167.943 39.1741 167.804 39.3185C167.664 39.4629 167.566 39.6445 167.523 39.8425C167.505 39.921 167.498 40.0016 167.501 40.0821C167.501 40.2448 167.537 40.4054 167.605 40.5524C167.674 40.6994 167.773 40.829 167.897 40.9317L171.599 43.992L171.226 48.8276C171.212 49.0297 171.252 49.232 171.343 49.4125C171.433 49.593 171.571 49.7447 171.74 49.8512C171.912 49.9573 172.109 50.0116 172.31 50.0077C172.511 50.0039 172.707 49.942 172.874 49.8293L176.875 47.1937L181.272 49.0563C181.456 49.1338 181.658 49.1575 181.854 49.1245C182.051 49.0916 182.235 49.0034 182.385 48.8699C182.535 48.7364 182.646 48.5629 182.704 48.3689C182.762 48.175 182.767 47.9682 182.716 47.772L181.486 43.088L184.588 39.396C184.719 39.2428 184.804 39.0552 184.834 38.8548C184.865 38.6544 184.839 38.4493 184.759 38.2633C184.68 38.0768 184.55 37.9168 184.386 37.8013C184.221 37.6859 184.028 37.6196 183.829 37.61L179.068 37.3484L176.585 33.2098C176.482 33.0371 176.332 32.8975 176.155 32.807C175.977 32.7165 175.778 32.6787 175.58 32.698C175.381 32.7109 175.19 32.7798 175.027 32.8972C174.865 33.0145 174.738 33.1756 174.66 33.3623V33.3623ZM178.384 39.4722L181.54 39.6466L179.486 42.0973C179.375 42.2328 179.297 42.3932 179.257 42.5654C179.218 42.7377 179.22 42.9169 179.262 43.0884L180.075 46.2034L177.153 44.9498C176.992 44.8832 176.819 44.8564 176.646 44.8716C176.473 44.8868 176.307 44.9435 176.16 45.037L173.507 46.7906L173.753 43.5779C173.768 43.4006 173.74 43.2223 173.671 43.0588C173.602 42.8953 173.494 42.7518 173.357 42.6411L170.916 40.6264L173.986 39.8749C174.154 39.8322 174.309 39.7497 174.439 39.6343C174.569 39.5188 174.671 39.3736 174.735 39.2106L175.868 36.2048L177.515 38.9495C177.609 39.1003 177.737 39.2264 177.888 39.3176C178.038 39.4087 178.208 39.4623 178.383 39.4739L178.384 39.4722Z" fill="#0A0D23"/>
<path d="M191.424 46.8019L188.001 46.203C187.804 46.1697 187.601 46.1928 187.416 46.2697C187.231 46.3466 187.07 46.4743 186.952 46.6385C186.817 46.8241 186.746 47.0499 186.749 47.2809C186.751 47.4582 186.791 47.6328 186.867 47.7927L188.48 50.9186L186.867 54.0445C186.772 54.2235 186.73 54.4264 186.745 54.6291C186.76 54.8318 186.832 55.0259 186.952 55.1881C187.072 55.3508 187.233 55.4775 187.417 55.5546C187.602 55.6316 187.804 55.6562 188.001 55.6258L191.424 55.0268L193.842 57.5541C193.983 57.6994 194.16 57.8019 194.355 57.85C194.55 57.8981 194.754 57.8898 194.944 57.8263C195.135 57.7653 195.305 57.6498 195.434 57.4935C195.563 57.3372 195.645 57.1466 195.671 56.9442L196.174 53.448L199.288 51.8769C199.467 51.7867 199.619 51.6471 199.725 51.4739C199.83 51.3006 199.887 51.1007 199.887 50.8967C199.887 50.6927 199.83 50.4927 199.725 50.3195C199.619 50.1462 199.467 50.0066 199.288 49.9165L196.174 48.3487L195.672 44.8525C195.644 44.6509 195.561 44.4612 195.432 44.3053C195.304 44.1493 195.135 44.0333 194.944 43.9705C194.754 43.9075 194.55 43.8996 194.355 43.9477C194.161 43.9957 193.983 44.0978 193.842 44.2426L191.424 46.8019ZM194.72 50.0694L196.388 50.908L194.719 51.7467C194.564 51.825 194.43 51.9401 194.328 52.0822C194.225 52.2243 194.158 52.3894 194.131 52.5635L193.864 54.4463L192.559 53.0849C192.437 52.958 192.286 52.863 192.121 52.808C191.955 52.753 191.779 52.7396 191.607 52.769L189.766 53.0984L190.632 51.4211C190.711 51.2647 190.752 51.0914 190.752 50.9156C190.752 50.7398 190.711 50.5666 190.632 50.4102L189.766 48.7299L191.606 49.0458C191.776 49.0778 191.952 49.0657 192.116 49.0105C192.281 48.9553 192.429 48.8588 192.547 48.7299L193.853 47.3698L194.12 49.2539C194.152 49.4276 194.222 49.5916 194.326 49.733C194.43 49.8744 194.565 49.9895 194.72 50.0694V50.0694Z" fill="#0A0D23"/>
<path d="M177.11 56.6258C176.913 56.5936 176.712 56.6185 176.528 56.6974C176.345 56.7764 176.187 56.9063 176.072 57.0723L174.114 59.9147L170.702 59.8819C170.502 59.8808 170.307 59.9363 170.137 60.0421C169.967 60.1479 169.829 60.2998 169.739 60.4808C169.647 60.6614 169.608 60.8645 169.625 61.0668C169.642 61.2691 169.715 61.4624 169.835 61.6245L171.877 64.402L170.798 67.6905C170.734 67.8833 170.724 68.0905 170.769 68.2888C170.815 68.487 170.914 68.6684 171.055 68.8123C171.196 68.9563 171.375 69.0571 171.569 69.1033C171.764 69.1495 171.968 69.1393 172.157 69.0738L175.388 67.9521L178.125 70.022C178.285 70.1442 178.475 70.218 178.674 70.2351C178.873 70.2522 179.073 70.2118 179.251 70.1186C179.428 70.0253 179.576 69.8831 179.678 69.708C179.78 69.533 179.831 69.3323 179.826 69.129L179.773 65.6548L182.556 63.6396C182.718 63.5224 182.845 63.3615 182.922 63.1749C183 62.9883 183.025 62.7834 182.994 62.5832C182.962 62.3828 182.876 62.1955 182.746 62.0417C182.616 61.888 182.446 61.7739 182.256 61.7121L178.994 60.6881L177.978 57.3773C177.915 57.1831 177.8 57.0104 177.647 56.8779C177.494 56.7453 177.308 56.6581 177.11 56.6258V56.6258ZM177.827 62.6051L179.549 63.1497L178.084 64.2171C177.943 64.3198 177.828 64.4556 177.75 64.613C177.672 64.7704 177.632 64.9447 177.634 65.1211L177.656 66.9509L176.201 65.8616C176.062 65.7549 175.9 65.6851 175.728 65.6585C175.556 65.6319 175.38 65.6493 175.217 65.7091L173.505 66.3081L174.084 64.5655C174.139 64.3976 174.152 64.2189 174.124 64.0444C174.096 63.87 174.028 63.705 173.924 63.5634L172.843 62.0929L174.652 62.1148C174.824 62.1146 174.995 62.0731 175.149 61.9936C175.303 61.9142 175.437 61.799 175.539 61.6573L176.575 60.1548L177.121 61.9084C177.176 62.0733 177.268 62.2225 177.391 62.3436C177.514 62.4648 177.663 62.5544 177.827 62.6051Z" fill="#0A0D23"/>
<path d="M142.796 85.4334C142.958 85.4956 143.103 85.5978 143.217 85.731C143.331 85.8641 143.41 86.024 143.449 86.1963L144.187 89.3243L146.179 86.8285C146.289 86.6911 146.431 86.5828 146.591 86.5126C146.751 86.4424 146.925 86.4125 147.099 86.4254L150.258 86.6781L148.534 83.9751C148.439 83.8264 148.381 83.6561 148.367 83.4793C148.352 83.3026 148.38 83.1248 148.448 82.9617L149.658 79.9861L146.596 80.8143C146.428 80.8596 146.251 80.8624 146.081 80.8226C145.911 80.7827 145.754 80.7014 145.622 80.5855L143.213 78.4929L143.042 81.7081C143.031 81.8848 142.979 82.0564 142.89 82.2083C142.8 82.3601 142.676 82.4876 142.528 82.58L139.83 84.2586L142.796 85.4334Z" fill="#FED710"/>
<path d="M152.163 67.2651C152.287 67.3876 152.38 67.5388 152.434 67.7059C152.488 67.8729 152.502 68.0508 152.474 68.2243L152.163 70.0987L153.812 69.2141C153.966 69.1336 154.137 69.0916 154.31 69.0916C154.483 69.0916 154.654 69.1336 154.808 69.2141L156.457 70.0987L156.136 68.2243C156.105 68.0492 156.117 67.8693 156.172 67.7003C156.226 67.5313 156.32 67.3785 156.446 67.2554L157.784 65.9256L155.943 65.6729C155.771 65.6488 155.607 65.5813 155.467 65.4767C155.326 65.372 155.214 65.2335 155.14 65.0735L154.315 63.3734L153.491 65.0735C153.414 65.2315 153.301 65.3685 153.161 65.4728C153.022 65.5771 152.859 65.6457 152.688 65.6729L150.836 65.9454L152.163 67.2651Z" fill="#FED710"/>
<path d="M164.85 84.6162C164.993 84.7173 165.108 84.8529 165.187 85.0108C165.265 85.1688 165.304 85.3441 165.3 85.521L165.278 87.363L166.723 86.2624C166.863 86.1566 167.025 86.0865 167.196 86.0581C167.368 86.0296 167.543 86.0436 167.708 86.0989L169.421 86.6887L168.832 84.9448C168.776 84.7778 168.76 84.5994 168.786 84.4248C168.813 84.2503 168.88 84.0847 168.982 83.9423L170.053 82.46L168.243 82.4928C168.07 82.4951 167.898 82.4547 167.744 82.3749C167.589 82.2952 167.455 82.1786 167.354 82.035L166.305 80.5417L165.77 82.2966C165.717 82.4654 165.626 82.6189 165.503 82.7442C165.38 82.8694 165.229 82.9626 165.063 83.016L163.339 83.572L164.85 84.6162Z" fill="#FED710"/>
<path d="M137.058 85.5101L141.511 87.254L142.625 91.9717C142.671 92.1693 142.771 92.3497 142.913 92.4923C143.055 92.635 143.233 92.7341 143.428 92.7783C143.505 92.7964 143.584 92.8038 143.663 92.8003C143.823 92.8004 143.981 92.7643 144.126 92.6946C144.27 92.6249 144.397 92.5233 144.498 92.3971L147.507 88.6263L152.26 89.0079C152.459 89.0228 152.658 88.9819 152.835 88.8896C153.013 88.7974 153.162 88.6573 153.267 88.4848C153.371 88.3099 153.424 88.1085 153.42 87.9039C153.417 87.6993 153.356 87.5001 153.245 87.3294L150.654 83.2532L152.485 78.7739C152.561 78.5861 152.584 78.3804 152.552 78.1798C152.52 77.9793 152.433 77.7919 152.302 77.6389C152.17 77.4859 151.999 77.3733 151.809 77.3139C151.618 77.2544 151.414 77.2505 151.221 77.3025L146.618 78.5561L142.989 75.3969C142.838 75.264 142.654 75.1771 142.457 75.1463C142.26 75.1154 142.058 75.1419 141.875 75.2225C141.692 75.3038 141.535 75.4357 141.421 75.6033C141.308 75.7709 141.242 75.9674 141.233 76.1707L140.976 81.0207L136.908 83.548C136.738 83.6535 136.601 83.8055 136.512 83.9867C136.423 84.1678 136.386 84.3708 136.405 84.5724C136.417 84.7751 136.485 84.9702 136.6 85.1358C136.716 85.3015 136.874 85.4311 137.058 85.5101ZM143.063 81.7191L143.235 78.5039L145.644 80.5965C145.777 80.7101 145.935 80.79 146.104 80.8297C146.273 80.8695 146.45 80.8679 146.618 80.8252L149.68 79.9971L148.449 82.9726C148.383 83.1364 148.356 83.3137 148.371 83.4899C148.386 83.6661 148.442 83.8362 148.534 83.9861L150.258 86.6891L147.1 86.4364C146.926 86.421 146.75 86.4498 146.59 86.5201C146.429 86.5905 146.288 86.7002 146.179 86.8395L144.198 89.3247L143.46 86.1967C143.418 86.0261 143.337 85.8681 143.223 85.7355C143.11 85.6029 142.967 85.4995 142.807 85.4339L139.852 84.2784L142.55 82.5998C142.698 82.5042 142.821 82.3743 142.911 82.2209C143 82.0675 143.052 81.8949 143.064 81.717L143.063 81.7191Z" fill="#0A0D23"/>
<path d="M150.269 68.4311L149.68 71.9188C149.647 72.1198 149.67 72.326 149.746 72.5146C149.821 72.7032 149.947 72.8667 150.108 72.987C150.291 73.1249 150.513 73.1977 150.74 73.1943C150.914 73.1921 151.086 73.1511 151.243 73.0742L154.316 71.4285L157.388 73.0742C157.564 73.1708 157.764 73.214 157.963 73.1985C158.162 73.183 158.353 73.1096 158.513 72.987C158.672 72.865 158.796 72.7013 158.872 72.5132C158.947 72.3251 158.971 72.1196 158.941 71.9188L158.352 68.4311L160.835 65.9677C160.978 65.8246 161.078 65.6437 161.126 65.4453C161.173 65.2469 161.165 65.0391 161.102 64.8452C161.042 64.65 160.928 64.4765 160.774 64.3452C160.62 64.2139 160.433 64.1303 160.233 64.1042L156.797 63.592L155.255 60.4206C155.166 60.238 155.029 60.0844 154.858 59.977C154.688 59.8696 154.492 59.8127 154.292 59.8127C154.091 59.8127 153.895 59.8696 153.725 59.977C153.555 60.0844 153.417 60.238 153.328 60.4206L151.786 63.592L148.35 64.1042C148.151 64.1323 147.964 64.2166 147.811 64.3477C147.657 64.4787 147.543 64.6511 147.481 64.8452C147.419 65.0392 147.411 65.2468 147.459 65.445C147.506 65.6432 147.606 65.8242 147.749 65.9677L150.269 68.4311ZM153.48 65.0743L154.305 63.3742L155.128 65.0756C155.205 65.2336 155.318 65.3706 155.458 65.4749C155.598 65.5792 155.76 65.6478 155.931 65.675L157.783 65.9475L156.445 67.2773C156.32 67.4014 156.227 67.5543 156.173 67.723C156.119 67.8917 156.106 68.0711 156.135 68.2461L156.456 70.1206L154.807 69.236C154.653 69.1555 154.482 69.1134 154.309 69.1134C154.136 69.1134 153.965 69.1555 153.811 69.236L152.163 70.1206L152.473 68.2461C152.504 68.0726 152.492 67.8938 152.438 67.7262C152.384 67.5586 152.289 67.4076 152.163 67.287L150.824 65.9572L152.676 65.6847C152.847 65.653 153.009 65.5815 153.148 65.4759C153.288 65.3702 153.401 65.2332 153.48 65.0756V65.0743Z" fill="#0A0D23"/>
<path d="M159.925 83.0139C159.894 83.2143 159.918 83.4197 159.996 83.6067C160.073 83.7937 160.201 83.9546 160.364 84.0712L163.158 86.0657L163.126 89.5425C163.125 89.7455 163.18 89.9447 163.284 90.118C163.388 90.2912 163.537 90.4316 163.715 90.5235C163.892 90.6166 164.092 90.6568 164.291 90.6394C164.49 90.622 164.68 90.5478 164.839 90.4253L167.57 88.3436L170.804 89.4426C170.993 89.5082 171.197 89.5185 171.392 89.4723C171.587 89.4261 171.765 89.3252 171.907 89.1812C172.048 89.0371 172.147 88.8556 172.193 88.6572C172.238 88.4588 172.228 88.2514 172.164 88.0585L171.061 84.767L173.095 81.9768C173.215 81.8141 173.288 81.6202 173.305 81.4173C173.322 81.2144 173.282 81.0108 173.19 80.8298C173.099 80.6489 172.959 80.4979 172.786 80.3943C172.614 80.2906 172.417 80.2385 172.217 80.2439L168.802 80.2982L166.821 77.4647C166.706 77.2993 166.548 77.1699 166.364 77.0909C166.181 77.012 165.979 76.9866 165.782 77.0177C165.586 77.0505 165.401 77.1381 165.25 77.2708C165.099 77.4035 164.987 77.5761 164.926 77.7696L163.92 81.0939L160.665 82.1293C160.474 82.1935 160.304 82.31 160.173 82.466C160.043 82.622 159.957 82.8116 159.925 83.0139ZM165.801 82.2835L166.336 80.5287L167.385 82.0219C167.486 82.1655 167.62 82.2821 167.775 82.3619C167.929 82.4416 168.101 82.482 168.274 82.4798L170.073 82.4579L169.002 83.9402C168.898 84.0815 168.829 84.2471 168.803 84.4221C168.777 84.5972 168.794 84.776 168.853 84.9427L169.441 86.6866L167.728 86.0968C167.563 86.0415 167.388 86.0274 167.216 86.0559C167.045 86.0843 166.883 86.1544 166.744 86.2603L165.298 87.3609L165.32 85.5189C165.32 85.3428 165.279 85.1692 165.201 85.012C165.123 84.8549 165.009 84.7186 164.87 84.6141L163.393 83.5569L165.116 83.0008C165.279 82.9453 165.426 82.851 165.545 82.726C165.664 82.6009 165.753 82.4486 165.803 82.2818L165.801 82.2835Z" fill="#0A0D23"/>
</g>
<defs>
<clipPath id="clip0_35_660">
<rect width="199.887" height="205" fill="white"/>
</clipPath>
</defs>
</svg>
